<mxfile host="app.diagrams.net" modified="2021-07-20T11:53:09.880Z" agent="5.0 (Windows)" etag="bAlnQzmCYllYjaDZKQIQ" version="14.8.5" type="github">
  <diagram id="KxuiyelQ4g_LW83yEsCo" name="Page-1">
    <mxGraphModel dx="1422" dy="763" grid="1" gridSize="10" guides="1" tooltips="1" connect="1" arrows="1" fold="1" page="1" pageScale="1" pageWidth="4681" pageHeight="3300" math="0" shadow="0">
      <root>
        <mxCell id="0" />
        <mxCell id="1" parent="0" />
        <mxCell id="luZRHkZ189JOT4w14sl7-182" style="edgeStyle=orthogonalEdgeStyle;rounded=0;orthogonalLoop=1;jettySize=auto;html=1;entryX=0;entryY=0.5;entryDx=0;entryDy=0;" edge="1" parent="1">
          <mxGeometry relative="1" as="geometry">
            <mxPoint x="570" y="284" as="sourcePoint" />
            <mxPoint x="645" y="284" as="targetPoint" />
            <Array as="points">
              <mxPoint x="590" y="284" />
              <mxPoint x="590" y="284" />
            </Array>
          </mxGeometry>
        </mxCell>
        <mxCell id="sUNE9Ao9WOD159sY9nD--49" value="&lt;div&gt;embedding layer&lt;/div&gt;" style="text;html=1;strokeColor=none;fillColor=none;align=center;verticalAlign=middle;whiteSpace=wrap;rounded=0;" parent="1" vertex="1">
          <mxGeometry x="404" y="354" width="160" height="20" as="geometry" />
        </mxCell>
        <mxCell id="luZRHkZ189JOT4w14sl7-183" value="" style="rounded=0;whiteSpace=wrap;html=1;shadow=1;glass=0;sketch=1;fillColor=#f5f5f5;strokeColor=#666666;fontColor=#333333;" vertex="1" parent="1">
          <mxGeometry x="480" y="219" width="28" height="26" as="geometry" />
        </mxCell>
        <mxCell id="luZRHkZ189JOT4w14sl7-184" value="" style="rounded=0;whiteSpace=wrap;html=1;shadow=1;glass=0;sketch=1;fillColor=#f5f5f5;strokeColor=#666666;fontColor=#333333;" vertex="1" parent="1">
          <mxGeometry x="508" y="219" width="28" height="26" as="geometry" />
        </mxCell>
        <mxCell id="luZRHkZ189JOT4w14sl7-185" value="" style="rounded=0;whiteSpace=wrap;html=1;shadow=1;glass=0;sketch=1;fillColor=#f5f5f5;strokeColor=#666666;fontColor=#333333;" vertex="1" parent="1">
          <mxGeometry x="536" y="219" width="28" height="26" as="geometry" />
        </mxCell>
        <mxCell id="luZRHkZ189JOT4w14sl7-186" value="" style="rounded=0;whiteSpace=wrap;html=1;shadow=1;glass=0;sketch=1;fillColor=#f5f5f5;strokeColor=#666666;fontColor=#333333;" vertex="1" parent="1">
          <mxGeometry x="480" y="245" width="28" height="26" as="geometry" />
        </mxCell>
        <mxCell id="luZRHkZ189JOT4w14sl7-187" value="" style="rounded=0;whiteSpace=wrap;html=1;shadow=1;glass=0;sketch=1;fillColor=#f5f5f5;strokeColor=#666666;fontColor=#333333;" vertex="1" parent="1">
          <mxGeometry x="508" y="245" width="28" height="26" as="geometry" />
        </mxCell>
        <mxCell id="luZRHkZ189JOT4w14sl7-188" value="" style="rounded=0;whiteSpace=wrap;html=1;shadow=1;glass=0;sketch=1;fillColor=#f5f5f5;strokeColor=#666666;fontColor=#333333;" vertex="1" parent="1">
          <mxGeometry x="536" y="245" width="28" height="26" as="geometry" />
        </mxCell>
        <mxCell id="luZRHkZ189JOT4w14sl7-189" value="" style="rounded=0;whiteSpace=wrap;html=1;shadow=1;glass=0;sketch=1;fillColor=#f5f5f5;strokeColor=#666666;fontColor=#333333;" vertex="1" parent="1">
          <mxGeometry x="480" y="271" width="28" height="26" as="geometry" />
        </mxCell>
        <mxCell id="luZRHkZ189JOT4w14sl7-190" value="" style="rounded=0;whiteSpace=wrap;html=1;shadow=1;glass=0;sketch=1;fillColor=#f5f5f5;strokeColor=#666666;fontColor=#333333;" vertex="1" parent="1">
          <mxGeometry x="508" y="271" width="28" height="26" as="geometry" />
        </mxCell>
        <mxCell id="luZRHkZ189JOT4w14sl7-191" value="" style="rounded=0;whiteSpace=wrap;html=1;shadow=1;glass=0;sketch=1;fillColor=#f5f5f5;strokeColor=#666666;fontColor=#333333;" vertex="1" parent="1">
          <mxGeometry x="536" y="271" width="28" height="26" as="geometry" />
        </mxCell>
        <mxCell id="luZRHkZ189JOT4w14sl7-192" value="" style="rounded=0;whiteSpace=wrap;html=1;shadow=1;glass=0;sketch=1;fillColor=#f5f5f5;strokeColor=#666666;fontColor=#333333;" vertex="1" parent="1">
          <mxGeometry x="480" y="297" width="28" height="26" as="geometry" />
        </mxCell>
        <mxCell id="luZRHkZ189JOT4w14sl7-193" value="" style="rounded=0;whiteSpace=wrap;html=1;shadow=1;glass=0;sketch=1;fillColor=#f5f5f5;strokeColor=#666666;fontColor=#333333;" vertex="1" parent="1">
          <mxGeometry x="508" y="297" width="28" height="26" as="geometry" />
        </mxCell>
        <mxCell id="luZRHkZ189JOT4w14sl7-194" value="" style="rounded=0;whiteSpace=wrap;html=1;shadow=1;glass=0;sketch=1;fillColor=#f5f5f5;strokeColor=#666666;fontColor=#333333;" vertex="1" parent="1">
          <mxGeometry x="536" y="297" width="28" height="26" as="geometry" />
        </mxCell>
        <mxCell id="luZRHkZ189JOT4w14sl7-195" value="" style="rounded=0;whiteSpace=wrap;html=1;shadow=1;glass=0;sketch=1;fillColor=#f5f5f5;strokeColor=#666666;fontColor=#333333;" vertex="1" parent="1">
          <mxGeometry x="480" y="323" width="28" height="26" as="geometry" />
        </mxCell>
        <mxCell id="luZRHkZ189JOT4w14sl7-196" value="" style="rounded=0;whiteSpace=wrap;html=1;shadow=1;glass=0;sketch=1;fillColor=#f5f5f5;strokeColor=#666666;fontColor=#333333;" vertex="1" parent="1">
          <mxGeometry x="508" y="323" width="28" height="26" as="geometry" />
        </mxCell>
        <mxCell id="luZRHkZ189JOT4w14sl7-197" value="" style="rounded=0;whiteSpace=wrap;html=1;shadow=1;glass=0;sketch=1;fillColor=#f5f5f5;strokeColor=#666666;fontColor=#333333;" vertex="1" parent="1">
          <mxGeometry x="536" y="323" width="28" height="26" as="geometry" />
        </mxCell>
        <mxCell id="luZRHkZ189JOT4w14sl7-198" value="" style="rounded=0;whiteSpace=wrap;html=1;shadow=1;glass=0;sketch=1;fillColor=#f5f5f5;strokeColor=#666666;fontColor=#333333;" vertex="1" parent="1">
          <mxGeometry x="396" y="219" width="28" height="26" as="geometry" />
        </mxCell>
        <mxCell id="luZRHkZ189JOT4w14sl7-199" value="" style="rounded=0;whiteSpace=wrap;html=1;shadow=1;glass=0;sketch=1;fillColor=#f5f5f5;strokeColor=#666666;fontColor=#333333;" vertex="1" parent="1">
          <mxGeometry x="424" y="219" width="28" height="26" as="geometry" />
        </mxCell>
        <mxCell id="luZRHkZ189JOT4w14sl7-200" value="" style="rounded=0;whiteSpace=wrap;html=1;shadow=1;glass=0;sketch=1;fillColor=#f5f5f5;strokeColor=#666666;fontColor=#333333;" vertex="1" parent="1">
          <mxGeometry x="452" y="219" width="28" height="26" as="geometry" />
        </mxCell>
        <mxCell id="luZRHkZ189JOT4w14sl7-201" value="" style="rounded=0;whiteSpace=wrap;html=1;shadow=1;glass=0;sketch=1;fillColor=#f5f5f5;strokeColor=#666666;fontColor=#333333;" vertex="1" parent="1">
          <mxGeometry x="396" y="245" width="28" height="26" as="geometry" />
        </mxCell>
        <mxCell id="luZRHkZ189JOT4w14sl7-202" value="" style="rounded=0;whiteSpace=wrap;html=1;shadow=1;glass=0;sketch=1;fillColor=#f5f5f5;strokeColor=#666666;fontColor=#333333;" vertex="1" parent="1">
          <mxGeometry x="424" y="245" width="28" height="26" as="geometry" />
        </mxCell>
        <mxCell id="luZRHkZ189JOT4w14sl7-203" value="" style="rounded=0;whiteSpace=wrap;html=1;shadow=1;glass=0;sketch=1;fillColor=#f5f5f5;strokeColor=#666666;fontColor=#333333;" vertex="1" parent="1">
          <mxGeometry x="452" y="245" width="28" height="26" as="geometry" />
        </mxCell>
        <mxCell id="luZRHkZ189JOT4w14sl7-204" value="" style="rounded=0;whiteSpace=wrap;html=1;shadow=1;glass=0;sketch=1;fillColor=#f5f5f5;strokeColor=#666666;fontColor=#333333;" vertex="1" parent="1">
          <mxGeometry x="396" y="271" width="28" height="26" as="geometry" />
        </mxCell>
        <mxCell id="luZRHkZ189JOT4w14sl7-205" value="" style="rounded=0;whiteSpace=wrap;html=1;shadow=1;glass=0;sketch=1;fillColor=#f5f5f5;strokeColor=#666666;fontColor=#333333;" vertex="1" parent="1">
          <mxGeometry x="424" y="271" width="28" height="26" as="geometry" />
        </mxCell>
        <mxCell id="luZRHkZ189JOT4w14sl7-206" value="" style="rounded=0;whiteSpace=wrap;html=1;shadow=1;glass=0;sketch=1;fillColor=#f5f5f5;strokeColor=#666666;fontColor=#333333;" vertex="1" parent="1">
          <mxGeometry x="452" y="271" width="28" height="26" as="geometry" />
        </mxCell>
        <mxCell id="luZRHkZ189JOT4w14sl7-207" value="" style="rounded=0;whiteSpace=wrap;html=1;shadow=1;glass=0;sketch=1;fillColor=#f5f5f5;strokeColor=#666666;fontColor=#333333;" vertex="1" parent="1">
          <mxGeometry x="396" y="297" width="28" height="26" as="geometry" />
        </mxCell>
        <mxCell id="luZRHkZ189JOT4w14sl7-208" value="" style="rounded=0;whiteSpace=wrap;html=1;shadow=1;glass=0;sketch=1;fillColor=#f5f5f5;strokeColor=#666666;fontColor=#333333;" vertex="1" parent="1">
          <mxGeometry x="424" y="297" width="28" height="26" as="geometry" />
        </mxCell>
        <mxCell id="luZRHkZ189JOT4w14sl7-209" value="" style="rounded=0;whiteSpace=wrap;html=1;shadow=1;glass=0;sketch=1;fillColor=#f5f5f5;strokeColor=#666666;fontColor=#333333;" vertex="1" parent="1">
          <mxGeometry x="452" y="297" width="28" height="26" as="geometry" />
        </mxCell>
        <mxCell id="luZRHkZ189JOT4w14sl7-210" value="" style="rounded=0;whiteSpace=wrap;html=1;shadow=1;glass=0;sketch=1;fillColor=#f5f5f5;strokeColor=#666666;fontColor=#333333;" vertex="1" parent="1">
          <mxGeometry x="396" y="323" width="28" height="26" as="geometry" />
        </mxCell>
        <mxCell id="luZRHkZ189JOT4w14sl7-211" value="" style="rounded=0;whiteSpace=wrap;html=1;shadow=1;glass=0;sketch=1;fillColor=#f5f5f5;strokeColor=#666666;fontColor=#333333;" vertex="1" parent="1">
          <mxGeometry x="424" y="323" width="28" height="26" as="geometry" />
        </mxCell>
        <mxCell id="luZRHkZ189JOT4w14sl7-212" value="" style="rounded=0;whiteSpace=wrap;html=1;shadow=1;glass=0;sketch=1;fillColor=#f5f5f5;strokeColor=#666666;fontColor=#333333;" vertex="1" parent="1">
          <mxGeometry x="452" y="323" width="28" height="26" as="geometry" />
        </mxCell>
        <mxCell id="luZRHkZ189JOT4w14sl7-213" value="&lt;div&gt;Promoter in one-hot&lt;/div&gt;" style="text;html=1;strokeColor=none;fillColor=none;align=center;verticalAlign=middle;whiteSpace=wrap;rounded=0;" vertex="1" parent="1">
          <mxGeometry x="156" y="261" width="160" height="20" as="geometry" />
        </mxCell>
        <mxCell id="luZRHkZ189JOT4w14sl7-214" value="&lt;div&gt;Enhancer in one-hot&lt;/div&gt;" style="text;html=1;strokeColor=none;fillColor=none;align=center;verticalAlign=middle;whiteSpace=wrap;rounded=0;" vertex="1" parent="1">
          <mxGeometry x="156" y="385" width="160" height="20" as="geometry" />
        </mxCell>
        <mxCell id="luZRHkZ189JOT4w14sl7-215" value="G" style="text;html=1;strokeColor=none;fillColor=none;align=center;verticalAlign=middle;whiteSpace=wrap;rounded=0;" vertex="1" parent="1">
          <mxGeometry x="136" y="216" width="40" height="20" as="geometry" />
        </mxCell>
        <mxCell id="luZRHkZ189JOT4w14sl7-216" value="T" style="text;html=1;strokeColor=none;fillColor=none;align=center;verticalAlign=middle;whiteSpace=wrap;rounded=0;" vertex="1" parent="1">
          <mxGeometry x="136" y="236" width="40" height="20" as="geometry" />
        </mxCell>
        <mxCell id="luZRHkZ189JOT4w14sl7-217" value="&lt;div&gt;A&lt;/div&gt;" style="text;html=1;strokeColor=none;fillColor=none;align=center;verticalAlign=middle;whiteSpace=wrap;rounded=0;" vertex="1" parent="1">
          <mxGeometry x="136" y="176" width="40" height="20" as="geometry" />
        </mxCell>
        <mxCell id="luZRHkZ189JOT4w14sl7-218" value="C" style="text;html=1;strokeColor=none;fillColor=none;align=center;verticalAlign=middle;whiteSpace=wrap;rounded=0;" vertex="1" parent="1">
          <mxGeometry x="136" y="196" width="40" height="20" as="geometry" />
        </mxCell>
        <mxCell id="luZRHkZ189JOT4w14sl7-219" value="" style="whiteSpace=wrap;html=1;aspect=fixed;fillColor=#dae8fc;strokeColor=#6c8ebf;" vertex="1" parent="1">
          <mxGeometry x="166" y="176" width="20" height="20" as="geometry" />
        </mxCell>
        <mxCell id="luZRHkZ189JOT4w14sl7-220" value="" style="whiteSpace=wrap;html=1;aspect=fixed;" vertex="1" parent="1">
          <mxGeometry x="186" y="196" width="20" height="20" as="geometry" />
        </mxCell>
        <mxCell id="luZRHkZ189JOT4w14sl7-221" value="" style="whiteSpace=wrap;html=1;aspect=fixed;fillColor=#ffe6cc;strokeColor=#d79b00;" vertex="1" parent="1">
          <mxGeometry x="186" y="196" width="20" height="20" as="geometry" />
        </mxCell>
        <mxCell id="luZRHkZ189JOT4w14sl7-222" value="" style="whiteSpace=wrap;html=1;aspect=fixed;fillColor=#ffe6cc;strokeColor=#d79b00;" vertex="1" parent="1">
          <mxGeometry x="206" y="196" width="20" height="20" as="geometry" />
        </mxCell>
        <mxCell id="luZRHkZ189JOT4w14sl7-223" value="" style="whiteSpace=wrap;html=1;aspect=fixed;fillColor=#e1d5e7;strokeColor=#9673a6;" vertex="1" parent="1">
          <mxGeometry x="226" y="236" width="20" height="20" as="geometry" />
        </mxCell>
        <mxCell id="luZRHkZ189JOT4w14sl7-224" value="" style="whiteSpace=wrap;html=1;aspect=fixed;fillColor=#f8cecc;strokeColor=#b85450;" vertex="1" parent="1">
          <mxGeometry x="246" y="216" width="20" height="20" as="geometry" />
        </mxCell>
        <mxCell id="luZRHkZ189JOT4w14sl7-225" value="" style="whiteSpace=wrap;html=1;aspect=fixed;fillColor=#f8cecc;strokeColor=#b85450;" vertex="1" parent="1">
          <mxGeometry x="266" y="216" width="20" height="20" as="geometry" />
        </mxCell>
        <mxCell id="luZRHkZ189JOT4w14sl7-226" value="" style="rounded=0;whiteSpace=wrap;html=1;" vertex="1" parent="1">
          <mxGeometry x="166" y="196" width="20" height="20" as="geometry" />
        </mxCell>
        <mxCell id="luZRHkZ189JOT4w14sl7-227" value="" style="rounded=0;whiteSpace=wrap;html=1;" vertex="1" parent="1">
          <mxGeometry x="166" y="216" width="20" height="20" as="geometry" />
        </mxCell>
        <mxCell id="luZRHkZ189JOT4w14sl7-228" value="" style="rounded=0;whiteSpace=wrap;html=1;" vertex="1" parent="1">
          <mxGeometry x="186" y="216" width="20" height="20" as="geometry" />
        </mxCell>
        <mxCell id="luZRHkZ189JOT4w14sl7-229" value="" style="rounded=0;whiteSpace=wrap;html=1;" vertex="1" parent="1">
          <mxGeometry x="206" y="216" width="20" height="20" as="geometry" />
        </mxCell>
        <mxCell id="luZRHkZ189JOT4w14sl7-230" value="" style="rounded=0;whiteSpace=wrap;html=1;" vertex="1" parent="1">
          <mxGeometry x="226" y="216" width="20" height="20" as="geometry" />
        </mxCell>
        <mxCell id="luZRHkZ189JOT4w14sl7-231" value="" style="rounded=0;whiteSpace=wrap;html=1;" vertex="1" parent="1">
          <mxGeometry x="206" y="236" width="20" height="20" as="geometry" />
        </mxCell>
        <mxCell id="luZRHkZ189JOT4w14sl7-232" value="" style="rounded=0;whiteSpace=wrap;html=1;" vertex="1" parent="1">
          <mxGeometry x="166" y="236" width="20" height="20" as="geometry" />
        </mxCell>
        <mxCell id="luZRHkZ189JOT4w14sl7-233" value="" style="rounded=0;whiteSpace=wrap;html=1;" vertex="1" parent="1">
          <mxGeometry x="186" y="236" width="20" height="20" as="geometry" />
        </mxCell>
        <mxCell id="luZRHkZ189JOT4w14sl7-234" value="" style="rounded=0;whiteSpace=wrap;html=1;" vertex="1" parent="1">
          <mxGeometry x="246" y="236" width="20" height="20" as="geometry" />
        </mxCell>
        <mxCell id="luZRHkZ189JOT4w14sl7-235" value="" style="rounded=0;whiteSpace=wrap;html=1;" vertex="1" parent="1">
          <mxGeometry x="266" y="236" width="20" height="20" as="geometry" />
        </mxCell>
        <mxCell id="luZRHkZ189JOT4w14sl7-236" value="" style="rounded=0;whiteSpace=wrap;html=1;" vertex="1" parent="1">
          <mxGeometry x="186" y="176" width="20" height="20" as="geometry" />
        </mxCell>
        <mxCell id="luZRHkZ189JOT4w14sl7-237" value="" style="rounded=0;whiteSpace=wrap;html=1;" vertex="1" parent="1">
          <mxGeometry x="206" y="176" width="20" height="20" as="geometry" />
        </mxCell>
        <mxCell id="luZRHkZ189JOT4w14sl7-238" value="" style="rounded=0;whiteSpace=wrap;html=1;" vertex="1" parent="1">
          <mxGeometry x="226" y="176" width="20" height="20" as="geometry" />
        </mxCell>
        <mxCell id="luZRHkZ189JOT4w14sl7-239" value="" style="rounded=0;whiteSpace=wrap;html=1;" vertex="1" parent="1">
          <mxGeometry x="246" y="176" width="20" height="20" as="geometry" />
        </mxCell>
        <mxCell id="luZRHkZ189JOT4w14sl7-240" value="" style="rounded=0;whiteSpace=wrap;html=1;" vertex="1" parent="1">
          <mxGeometry x="226" y="196" width="20" height="20" as="geometry" />
        </mxCell>
        <mxCell id="luZRHkZ189JOT4w14sl7-241" value="" style="rounded=0;whiteSpace=wrap;html=1;" vertex="1" parent="1">
          <mxGeometry x="246" y="196" width="20" height="20" as="geometry" />
        </mxCell>
        <mxCell id="luZRHkZ189JOT4w14sl7-242" value="" style="rounded=0;whiteSpace=wrap;html=1;" vertex="1" parent="1">
          <mxGeometry x="266" y="196" width="20" height="20" as="geometry" />
        </mxCell>
        <mxCell id="luZRHkZ189JOT4w14sl7-243" value="" style="rounded=0;whiteSpace=wrap;html=1;" vertex="1" parent="1">
          <mxGeometry x="266" y="176" width="20" height="20" as="geometry" />
        </mxCell>
        <mxCell id="luZRHkZ189JOT4w14sl7-244" value="" style="whiteSpace=wrap;html=1;aspect=fixed;fillColor=#e1d5e7;strokeColor=#9673a6;" vertex="1" parent="1">
          <mxGeometry x="286" y="236" width="20" height="20" as="geometry" />
        </mxCell>
        <mxCell id="luZRHkZ189JOT4w14sl7-245" value="" style="rounded=0;whiteSpace=wrap;html=1;" vertex="1" parent="1">
          <mxGeometry x="286" y="216" width="20" height="20" as="geometry" />
        </mxCell>
        <mxCell id="luZRHkZ189JOT4w14sl7-246" value="" style="rounded=0;whiteSpace=wrap;html=1;" vertex="1" parent="1">
          <mxGeometry x="286" y="176" width="20" height="20" as="geometry" />
        </mxCell>
        <mxCell id="luZRHkZ189JOT4w14sl7-247" style="edgeStyle=orthogonalEdgeStyle;curved=1;rounded=0;orthogonalLoop=1;jettySize=auto;html=1;entryX=0;entryY=0.5;entryDx=0;entryDy=0;exitX=1;exitY=1;exitDx=0;exitDy=0;" edge="1" parent="1" source="luZRHkZ189JOT4w14sl7-248">
          <mxGeometry relative="1" as="geometry">
            <mxPoint x="396" y="285.9999999999999" as="targetPoint" />
            <Array as="points">
              <mxPoint x="346" y="216.5" />
              <mxPoint x="346" y="286.5" />
            </Array>
          </mxGeometry>
        </mxCell>
        <mxCell id="luZRHkZ189JOT4w14sl7-248" value="" style="rounded=0;whiteSpace=wrap;html=1;" vertex="1" parent="1">
          <mxGeometry x="286" y="196" width="20" height="20" as="geometry" />
        </mxCell>
        <mxCell id="luZRHkZ189JOT4w14sl7-249" value="G" style="text;html=1;strokeColor=none;fillColor=none;align=center;verticalAlign=middle;whiteSpace=wrap;rounded=0;" vertex="1" parent="1">
          <mxGeometry x="136" y="345" width="40" height="20" as="geometry" />
        </mxCell>
        <mxCell id="luZRHkZ189JOT4w14sl7-250" value="T" style="text;html=1;strokeColor=none;fillColor=none;align=center;verticalAlign=middle;whiteSpace=wrap;rounded=0;" vertex="1" parent="1">
          <mxGeometry x="136" y="365" width="40" height="20" as="geometry" />
        </mxCell>
        <mxCell id="luZRHkZ189JOT4w14sl7-251" value="&lt;div&gt;A&lt;/div&gt;" style="text;html=1;strokeColor=none;fillColor=none;align=center;verticalAlign=middle;whiteSpace=wrap;rounded=0;" vertex="1" parent="1">
          <mxGeometry x="136" y="305" width="40" height="20" as="geometry" />
        </mxCell>
        <mxCell id="luZRHkZ189JOT4w14sl7-252" value="C" style="text;html=1;strokeColor=none;fillColor=none;align=center;verticalAlign=middle;whiteSpace=wrap;rounded=0;" vertex="1" parent="1">
          <mxGeometry x="136" y="325" width="40" height="20" as="geometry" />
        </mxCell>
        <mxCell id="luZRHkZ189JOT4w14sl7-253" value="" style="whiteSpace=wrap;html=1;aspect=fixed;" vertex="1" parent="1">
          <mxGeometry x="166" y="305" width="20" height="20" as="geometry" />
        </mxCell>
        <mxCell id="luZRHkZ189JOT4w14sl7-254" value="" style="whiteSpace=wrap;html=1;aspect=fixed;" vertex="1" parent="1">
          <mxGeometry x="186" y="325" width="20" height="20" as="geometry" />
        </mxCell>
        <mxCell id="luZRHkZ189JOT4w14sl7-255" value="" style="whiteSpace=wrap;html=1;aspect=fixed;" vertex="1" parent="1">
          <mxGeometry x="186" y="325" width="20" height="20" as="geometry" />
        </mxCell>
        <mxCell id="luZRHkZ189JOT4w14sl7-256" value="" style="whiteSpace=wrap;html=1;aspect=fixed;" vertex="1" parent="1">
          <mxGeometry x="206" y="325" width="20" height="20" as="geometry" />
        </mxCell>
        <mxCell id="luZRHkZ189JOT4w14sl7-257" value="" style="whiteSpace=wrap;html=1;aspect=fixed;" vertex="1" parent="1">
          <mxGeometry x="226" y="365" width="20" height="20" as="geometry" />
        </mxCell>
        <mxCell id="luZRHkZ189JOT4w14sl7-258" value="" style="whiteSpace=wrap;html=1;aspect=fixed;" vertex="1" parent="1">
          <mxGeometry x="246" y="345" width="20" height="20" as="geometry" />
        </mxCell>
        <mxCell id="luZRHkZ189JOT4w14sl7-259" value="" style="whiteSpace=wrap;html=1;aspect=fixed;fillColor=#f8cecc;strokeColor=#b85450;" vertex="1" parent="1">
          <mxGeometry x="266" y="345" width="20" height="20" as="geometry" />
        </mxCell>
        <mxCell id="luZRHkZ189JOT4w14sl7-260" value="" style="rounded=0;whiteSpace=wrap;html=1;" vertex="1" parent="1">
          <mxGeometry x="166" y="325" width="20" height="20" as="geometry" />
        </mxCell>
        <mxCell id="luZRHkZ189JOT4w14sl7-261" value="" style="rounded=0;whiteSpace=wrap;html=1;" vertex="1" parent="1">
          <mxGeometry x="166" y="345" width="20" height="20" as="geometry" />
        </mxCell>
        <mxCell id="luZRHkZ189JOT4w14sl7-262" value="" style="rounded=0;whiteSpace=wrap;html=1;" vertex="1" parent="1">
          <mxGeometry x="186" y="345" width="20" height="20" as="geometry" />
        </mxCell>
        <mxCell id="luZRHkZ189JOT4w14sl7-263" value="" style="rounded=0;whiteSpace=wrap;html=1;fillColor=#f8cecc;strokeColor=#b85450;" vertex="1" parent="1">
          <mxGeometry x="206" y="345" width="20" height="20" as="geometry" />
        </mxCell>
        <mxCell id="luZRHkZ189JOT4w14sl7-264" value="" style="rounded=0;whiteSpace=wrap;html=1;" vertex="1" parent="1">
          <mxGeometry x="226" y="345" width="20" height="20" as="geometry" />
        </mxCell>
        <mxCell id="luZRHkZ189JOT4w14sl7-265" value="" style="rounded=0;whiteSpace=wrap;html=1;" vertex="1" parent="1">
          <mxGeometry x="206" y="365" width="20" height="20" as="geometry" />
        </mxCell>
        <mxCell id="luZRHkZ189JOT4w14sl7-266" value="" style="rounded=0;whiteSpace=wrap;html=1;fillColor=#e1d5e7;strokeColor=#9673a6;" vertex="1" parent="1">
          <mxGeometry x="166" y="365" width="20" height="20" as="geometry" />
        </mxCell>
        <mxCell id="luZRHkZ189JOT4w14sl7-267" value="" style="rounded=0;whiteSpace=wrap;html=1;fillColor=#e1d5e7;strokeColor=#9673a6;" vertex="1" parent="1">
          <mxGeometry x="186" y="365" width="20" height="20" as="geometry" />
        </mxCell>
        <mxCell id="luZRHkZ189JOT4w14sl7-268" value="" style="rounded=0;whiteSpace=wrap;html=1;" vertex="1" parent="1">
          <mxGeometry x="246" y="365" width="20" height="20" as="geometry" />
        </mxCell>
        <mxCell id="luZRHkZ189JOT4w14sl7-269" value="" style="rounded=0;whiteSpace=wrap;html=1;" vertex="1" parent="1">
          <mxGeometry x="266" y="365" width="20" height="20" as="geometry" />
        </mxCell>
        <mxCell id="luZRHkZ189JOT4w14sl7-270" value="" style="rounded=0;whiteSpace=wrap;html=1;" vertex="1" parent="1">
          <mxGeometry x="186" y="305" width="20" height="20" as="geometry" />
        </mxCell>
        <mxCell id="luZRHkZ189JOT4w14sl7-271" value="" style="rounded=0;whiteSpace=wrap;html=1;" vertex="1" parent="1">
          <mxGeometry x="206" y="305" width="20" height="20" as="geometry" />
        </mxCell>
        <mxCell id="luZRHkZ189JOT4w14sl7-272" value="" style="rounded=0;whiteSpace=wrap;html=1;fillColor=#dae8fc;strokeColor=#6c8ebf;" vertex="1" parent="1">
          <mxGeometry x="226" y="305" width="20" height="20" as="geometry" />
        </mxCell>
        <mxCell id="luZRHkZ189JOT4w14sl7-273" value="" style="rounded=0;whiteSpace=wrap;html=1;fillColor=#dae8fc;strokeColor=#6c8ebf;" vertex="1" parent="1">
          <mxGeometry x="246" y="305" width="20" height="20" as="geometry" />
        </mxCell>
        <mxCell id="luZRHkZ189JOT4w14sl7-274" value="" style="rounded=0;whiteSpace=wrap;html=1;" vertex="1" parent="1">
          <mxGeometry x="226" y="325" width="20" height="20" as="geometry" />
        </mxCell>
        <mxCell id="luZRHkZ189JOT4w14sl7-275" value="" style="rounded=0;whiteSpace=wrap;html=1;" vertex="1" parent="1">
          <mxGeometry x="246" y="325" width="20" height="20" as="geometry" />
        </mxCell>
        <mxCell id="luZRHkZ189JOT4w14sl7-276" value="" style="rounded=0;whiteSpace=wrap;html=1;" vertex="1" parent="1">
          <mxGeometry x="266" y="325" width="20" height="20" as="geometry" />
        </mxCell>
        <mxCell id="luZRHkZ189JOT4w14sl7-277" value="" style="rounded=0;whiteSpace=wrap;html=1;" vertex="1" parent="1">
          <mxGeometry x="266" y="305" width="20" height="20" as="geometry" />
        </mxCell>
        <mxCell id="luZRHkZ189JOT4w14sl7-278" value="" style="whiteSpace=wrap;html=1;aspect=fixed;fillColor=#e1d5e7;strokeColor=#9673a6;" vertex="1" parent="1">
          <mxGeometry x="286" y="365" width="20" height="20" as="geometry" />
        </mxCell>
        <mxCell id="luZRHkZ189JOT4w14sl7-279" value="" style="rounded=0;whiteSpace=wrap;html=1;" vertex="1" parent="1">
          <mxGeometry x="286" y="345" width="20" height="20" as="geometry" />
        </mxCell>
        <mxCell id="luZRHkZ189JOT4w14sl7-280" value="" style="rounded=0;whiteSpace=wrap;html=1;" vertex="1" parent="1">
          <mxGeometry x="286" y="305" width="20" height="20" as="geometry" />
        </mxCell>
        <mxCell id="luZRHkZ189JOT4w14sl7-281" style="edgeStyle=orthogonalEdgeStyle;curved=1;rounded=0;orthogonalLoop=1;jettySize=auto;html=1;entryX=0;entryY=0.5;entryDx=0;entryDy=0;exitX=1;exitY=1;exitDx=0;exitDy=0;" edge="1" parent="1" source="luZRHkZ189JOT4w14sl7-282">
          <mxGeometry relative="1" as="geometry">
            <mxPoint x="396" y="285.9999999999999" as="targetPoint" />
            <Array as="points">
              <mxPoint x="346" y="345.5" />
              <mxPoint x="346" y="285.5" />
            </Array>
          </mxGeometry>
        </mxCell>
        <mxCell id="luZRHkZ189JOT4w14sl7-282" value="" style="rounded=0;whiteSpace=wrap;html=1;" vertex="1" parent="1">
          <mxGeometry x="286" y="325" width="20" height="20" as="geometry" />
        </mxCell>
        <mxCell id="luZRHkZ189JOT4w14sl7-283" style="edgeStyle=orthogonalEdgeStyle;rounded=0;orthogonalLoop=1;jettySize=auto;html=1;entryX=0;entryY=0.5;entryDx=0;entryDy=0;" edge="1" parent="1">
          <mxGeometry relative="1" as="geometry">
            <mxPoint x="765" y="278.5" as="sourcePoint" />
            <mxPoint x="810" y="278.5" as="targetPoint" />
            <Array as="points">
              <mxPoint x="780" y="278.5" />
              <mxPoint x="780" y="278.5" />
            </Array>
          </mxGeometry>
        </mxCell>
        <mxCell id="luZRHkZ189JOT4w14sl7-284" value="&lt;div&gt;CNN layers&lt;/div&gt;" style="text;html=1;strokeColor=none;fillColor=none;align=center;verticalAlign=middle;whiteSpace=wrap;rounded=0;" vertex="1" parent="1">
          <mxGeometry x="575" y="353.5" width="250" height="20" as="geometry" />
        </mxCell>
        <mxCell id="luZRHkZ189JOT4w14sl7-285" value="" style="whiteSpace=wrap;html=1;aspect=fixed;fillColor=#dae8fc;strokeColor=#6c8ebf;" vertex="1" parent="1">
          <mxGeometry x="645" y="222.5" width="30" height="30" as="geometry" />
        </mxCell>
        <mxCell id="luZRHkZ189JOT4w14sl7-286" value="" style="whiteSpace=wrap;html=1;aspect=fixed;fillColor=#dae8fc;strokeColor=#6c8ebf;" vertex="1" parent="1">
          <mxGeometry x="675" y="222.5" width="30" height="30" as="geometry" />
        </mxCell>
        <mxCell id="luZRHkZ189JOT4w14sl7-287" value="" style="whiteSpace=wrap;html=1;aspect=fixed;fillColor=#dae8fc;strokeColor=#6c8ebf;" vertex="1" parent="1">
          <mxGeometry x="705" y="222.5" width="30" height="30" as="geometry" />
        </mxCell>
        <mxCell id="luZRHkZ189JOT4w14sl7-288" value="" style="whiteSpace=wrap;html=1;aspect=fixed;fillColor=#dae8fc;strokeColor=#6c8ebf;" vertex="1" parent="1">
          <mxGeometry x="645" y="252.5" width="30" height="30" as="geometry" />
        </mxCell>
        <mxCell id="luZRHkZ189JOT4w14sl7-289" value="" style="whiteSpace=wrap;html=1;aspect=fixed;fillColor=#dae8fc;strokeColor=#6c8ebf;" vertex="1" parent="1">
          <mxGeometry x="675" y="252.5" width="30" height="30" as="geometry" />
        </mxCell>
        <mxCell id="luZRHkZ189JOT4w14sl7-290" value="" style="whiteSpace=wrap;html=1;aspect=fixed;fillColor=#dae8fc;strokeColor=#6c8ebf;" vertex="1" parent="1">
          <mxGeometry x="705" y="252.5" width="30" height="30" as="geometry" />
        </mxCell>
        <mxCell id="luZRHkZ189JOT4w14sl7-291" value="" style="whiteSpace=wrap;html=1;aspect=fixed;fillColor=#dae8fc;strokeColor=#6c8ebf;" vertex="1" parent="1">
          <mxGeometry x="645" y="282.5" width="30" height="30" as="geometry" />
        </mxCell>
        <mxCell id="luZRHkZ189JOT4w14sl7-292" value="" style="whiteSpace=wrap;html=1;aspect=fixed;fillColor=#dae8fc;strokeColor=#6c8ebf;" vertex="1" parent="1">
          <mxGeometry x="675" y="282.5" width="30" height="30" as="geometry" />
        </mxCell>
        <mxCell id="luZRHkZ189JOT4w14sl7-293" value="" style="whiteSpace=wrap;html=1;aspect=fixed;fillColor=#dae8fc;strokeColor=#6c8ebf;" vertex="1" parent="1">
          <mxGeometry x="705" y="282.5" width="30" height="30" as="geometry" />
        </mxCell>
        <mxCell id="luZRHkZ189JOT4w14sl7-294" value="" style="whiteSpace=wrap;html=1;aspect=fixed;fillColor=#d5e8d4;strokeColor=#82b366;" vertex="1" parent="1">
          <mxGeometry x="655" y="232.5" width="30" height="30" as="geometry" />
        </mxCell>
        <mxCell id="luZRHkZ189JOT4w14sl7-295" value="" style="whiteSpace=wrap;html=1;aspect=fixed;fillColor=#d5e8d4;strokeColor=#82b366;" vertex="1" parent="1">
          <mxGeometry x="685" y="232.5" width="30" height="30" as="geometry" />
        </mxCell>
        <mxCell id="luZRHkZ189JOT4w14sl7-296" value="" style="whiteSpace=wrap;html=1;aspect=fixed;fillColor=#d5e8d4;strokeColor=#82b366;" vertex="1" parent="1">
          <mxGeometry x="715" y="232.5" width="30" height="30" as="geometry" />
        </mxCell>
        <mxCell id="luZRHkZ189JOT4w14sl7-297" value="" style="whiteSpace=wrap;html=1;aspect=fixed;fillColor=#d5e8d4;strokeColor=#82b366;" vertex="1" parent="1">
          <mxGeometry x="655" y="262.5" width="30" height="30" as="geometry" />
        </mxCell>
        <mxCell id="luZRHkZ189JOT4w14sl7-298" value="" style="whiteSpace=wrap;html=1;aspect=fixed;fillColor=#d5e8d4;strokeColor=#82b366;" vertex="1" parent="1">
          <mxGeometry x="685" y="262.5" width="30" height="30" as="geometry" />
        </mxCell>
        <mxCell id="luZRHkZ189JOT4w14sl7-299" value="" style="whiteSpace=wrap;html=1;aspect=fixed;fillColor=#d5e8d4;strokeColor=#82b366;" vertex="1" parent="1">
          <mxGeometry x="715" y="262.5" width="30" height="30" as="geometry" />
        </mxCell>
        <mxCell id="luZRHkZ189JOT4w14sl7-300" value="" style="whiteSpace=wrap;html=1;aspect=fixed;fillColor=#d5e8d4;strokeColor=#82b366;" vertex="1" parent="1">
          <mxGeometry x="655" y="292.5" width="30" height="30" as="geometry" />
        </mxCell>
        <mxCell id="luZRHkZ189JOT4w14sl7-301" value="" style="whiteSpace=wrap;html=1;aspect=fixed;fillColor=#d5e8d4;strokeColor=#82b366;" vertex="1" parent="1">
          <mxGeometry x="685" y="292.5" width="30" height="30" as="geometry" />
        </mxCell>
        <mxCell id="luZRHkZ189JOT4w14sl7-302" value="" style="whiteSpace=wrap;html=1;aspect=fixed;fillColor=#d5e8d4;strokeColor=#82b366;" vertex="1" parent="1">
          <mxGeometry x="715" y="292.5" width="30" height="30" as="geometry" />
        </mxCell>
        <mxCell id="luZRHkZ189JOT4w14sl7-303" value="" style="whiteSpace=wrap;html=1;aspect=fixed;fillColor=#ffe6cc;strokeColor=#d79b00;" vertex="1" parent="1">
          <mxGeometry x="665" y="242.5" width="30" height="30" as="geometry" />
        </mxCell>
        <mxCell id="luZRHkZ189JOT4w14sl7-304" value="" style="whiteSpace=wrap;html=1;aspect=fixed;fillColor=#ffe6cc;strokeColor=#d79b00;" vertex="1" parent="1">
          <mxGeometry x="695" y="242.5" width="30" height="30" as="geometry" />
        </mxCell>
        <mxCell id="luZRHkZ189JOT4w14sl7-305" value="" style="whiteSpace=wrap;html=1;aspect=fixed;fillColor=#ffe6cc;strokeColor=#d79b00;" vertex="1" parent="1">
          <mxGeometry x="725" y="242.5" width="30" height="30" as="geometry" />
        </mxCell>
        <mxCell id="luZRHkZ189JOT4w14sl7-306" value="" style="whiteSpace=wrap;html=1;aspect=fixed;fillColor=#ffe6cc;strokeColor=#d79b00;" vertex="1" parent="1">
          <mxGeometry x="665" y="272.5" width="30" height="30" as="geometry" />
        </mxCell>
        <mxCell id="luZRHkZ189JOT4w14sl7-307" value="" style="whiteSpace=wrap;html=1;aspect=fixed;fillColor=#ffe6cc;strokeColor=#d79b00;" vertex="1" parent="1">
          <mxGeometry x="695" y="272.5" width="30" height="30" as="geometry" />
        </mxCell>
        <mxCell id="luZRHkZ189JOT4w14sl7-308" value="" style="whiteSpace=wrap;html=1;aspect=fixed;fillColor=#ffe6cc;strokeColor=#d79b00;" vertex="1" parent="1">
          <mxGeometry x="725" y="272.5" width="30" height="30" as="geometry" />
        </mxCell>
        <mxCell id="luZRHkZ189JOT4w14sl7-309" value="" style="whiteSpace=wrap;html=1;aspect=fixed;fillColor=#ffe6cc;strokeColor=#d79b00;" vertex="1" parent="1">
          <mxGeometry x="665" y="302.5" width="30" height="30" as="geometry" />
        </mxCell>
        <mxCell id="luZRHkZ189JOT4w14sl7-310" value="" style="whiteSpace=wrap;html=1;aspect=fixed;fillColor=#ffe6cc;strokeColor=#d79b00;" vertex="1" parent="1">
          <mxGeometry x="695" y="302.5" width="30" height="30" as="geometry" />
        </mxCell>
        <mxCell id="luZRHkZ189JOT4w14sl7-311" value="" style="whiteSpace=wrap;html=1;aspect=fixed;fillColor=#ffe6cc;strokeColor=#d79b00;" vertex="1" parent="1">
          <mxGeometry x="725" y="302.5" width="30" height="30" as="geometry" />
        </mxCell>
        <mxCell id="luZRHkZ189JOT4w14sl7-312" value="" style="whiteSpace=wrap;html=1;aspect=fixed;fillColor=#f8cecc;strokeColor=#b85450;" vertex="1" parent="1">
          <mxGeometry x="675" y="252.5" width="30" height="30" as="geometry" />
        </mxCell>
        <mxCell id="luZRHkZ189JOT4w14sl7-313" value="" style="whiteSpace=wrap;html=1;aspect=fixed;fillColor=#f8cecc;strokeColor=#b85450;" vertex="1" parent="1">
          <mxGeometry x="705" y="252.5" width="30" height="30" as="geometry" />
        </mxCell>
        <mxCell id="luZRHkZ189JOT4w14sl7-314" value="" style="whiteSpace=wrap;html=1;aspect=fixed;fillColor=#f8cecc;strokeColor=#b85450;" vertex="1" parent="1">
          <mxGeometry x="735" y="252.5" width="30" height="30" as="geometry" />
        </mxCell>
        <mxCell id="luZRHkZ189JOT4w14sl7-315" value="" style="whiteSpace=wrap;html=1;aspect=fixed;fillColor=#f8cecc;strokeColor=#b85450;" vertex="1" parent="1">
          <mxGeometry x="675" y="282.5" width="30" height="30" as="geometry" />
        </mxCell>
        <mxCell id="luZRHkZ189JOT4w14sl7-316" value="" style="whiteSpace=wrap;html=1;aspect=fixed;fillColor=#f8cecc;strokeColor=#b85450;" vertex="1" parent="1">
          <mxGeometry x="705" y="282.5" width="30" height="30" as="geometry" />
        </mxCell>
        <mxCell id="luZRHkZ189JOT4w14sl7-317" value="" style="whiteSpace=wrap;html=1;aspect=fixed;fillColor=#f8cecc;strokeColor=#b85450;" vertex="1" parent="1">
          <mxGeometry x="735" y="282.5" width="30" height="30" as="geometry" />
        </mxCell>
        <mxCell id="luZRHkZ189JOT4w14sl7-318" value="" style="whiteSpace=wrap;html=1;aspect=fixed;fillColor=#f8cecc;strokeColor=#b85450;" vertex="1" parent="1">
          <mxGeometry x="675" y="312.5" width="30" height="30" as="geometry" />
        </mxCell>
        <mxCell id="luZRHkZ189JOT4w14sl7-319" value="" style="whiteSpace=wrap;html=1;aspect=fixed;fillColor=#f8cecc;strokeColor=#b85450;" vertex="1" parent="1">
          <mxGeometry x="705" y="312.5" width="30" height="30" as="geometry" />
        </mxCell>
        <mxCell id="luZRHkZ189JOT4w14sl7-320" value="" style="whiteSpace=wrap;html=1;aspect=fixed;fillColor=#f8cecc;strokeColor=#b85450;" vertex="1" parent="1">
          <mxGeometry x="735" y="312.5" width="30" height="30" as="geometry" />
        </mxCell>
        <mxCell id="luZRHkZ189JOT4w14sl7-321" style="edgeStyle=none;rounded=0;orthogonalLoop=1;jettySize=auto;html=1;entryX=0;entryY=0.5;entryDx=0;entryDy=0;" edge="1" parent="1" source="luZRHkZ189JOT4w14sl7-322" target="luZRHkZ189JOT4w14sl7-334">
          <mxGeometry relative="1" as="geometry" />
        </mxCell>
        <mxCell id="luZRHkZ189JOT4w14sl7-322" value="" style="ellipse;whiteSpace=wrap;html=1;aspect=fixed;" vertex="1" parent="1">
          <mxGeometry x="810" y="184" width="30" height="30" as="geometry" />
        </mxCell>
        <mxCell id="luZRHkZ189JOT4w14sl7-323" style="edgeStyle=none;rounded=1;jumpSize=20;orthogonalLoop=1;jettySize=auto;html=1;entryX=0;entryY=0.5;entryDx=0;entryDy=0;strokeWidth=1;" edge="1" parent="1" source="luZRHkZ189JOT4w14sl7-325" target="luZRHkZ189JOT4w14sl7-343">
          <mxGeometry relative="1" as="geometry" />
        </mxCell>
        <mxCell id="luZRHkZ189JOT4w14sl7-324" style="edgeStyle=none;rounded=1;jumpSize=20;orthogonalLoop=1;jettySize=auto;html=1;entryX=0;entryY=0.5;entryDx=0;entryDy=0;strokeWidth=1;" edge="1" parent="1" source="luZRHkZ189JOT4w14sl7-325" target="luZRHkZ189JOT4w14sl7-341">
          <mxGeometry relative="1" as="geometry" />
        </mxCell>
        <mxCell id="luZRHkZ189JOT4w14sl7-325" value="" style="ellipse;whiteSpace=wrap;html=1;aspect=fixed;" vertex="1" parent="1">
          <mxGeometry x="810" y="224" width="30" height="30" as="geometry" />
        </mxCell>
        <mxCell id="luZRHkZ189JOT4w14sl7-326" style="rounded=1;jumpSize=20;orthogonalLoop=1;jettySize=auto;html=1;entryX=0;entryY=0.5;entryDx=0;entryDy=0;strokeWidth=1;" edge="1" parent="1" source="luZRHkZ189JOT4w14sl7-327" target="luZRHkZ189JOT4w14sl7-335">
          <mxGeometry relative="1" as="geometry" />
        </mxCell>
        <mxCell id="luZRHkZ189JOT4w14sl7-327" value="" style="ellipse;whiteSpace=wrap;html=1;aspect=fixed;" vertex="1" parent="1">
          <mxGeometry x="810" y="264" width="30" height="30" as="geometry" />
        </mxCell>
        <mxCell id="luZRHkZ189JOT4w14sl7-328" style="rounded=1;jumpSize=20;orthogonalLoop=1;jettySize=auto;html=1;entryX=0;entryY=0.5;entryDx=0;entryDy=0;strokeWidth=1;" edge="1" parent="1" source="luZRHkZ189JOT4w14sl7-330" target="luZRHkZ189JOT4w14sl7-334">
          <mxGeometry relative="1" as="geometry" />
        </mxCell>
        <mxCell id="luZRHkZ189JOT4w14sl7-329" style="edgeStyle=none;rounded=1;jumpSize=20;orthogonalLoop=1;jettySize=auto;html=1;entryX=0;entryY=0.5;entryDx=0;entryDy=0;strokeWidth=1;" edge="1" parent="1" source="luZRHkZ189JOT4w14sl7-330" target="luZRHkZ189JOT4w14sl7-343">
          <mxGeometry relative="1" as="geometry" />
        </mxCell>
        <mxCell id="luZRHkZ189JOT4w14sl7-330" value="" style="ellipse;whiteSpace=wrap;html=1;aspect=fixed;" vertex="1" parent="1">
          <mxGeometry x="810" y="304" width="30" height="30" as="geometry" />
        </mxCell>
        <mxCell id="luZRHkZ189JOT4w14sl7-331" style="edgeStyle=none;rounded=1;jumpSize=20;orthogonalLoop=1;jettySize=auto;html=1;entryX=0;entryY=0.5;entryDx=0;entryDy=0;strokeWidth=1;" edge="1" parent="1" source="luZRHkZ189JOT4w14sl7-332" target="luZRHkZ189JOT4w14sl7-334">
          <mxGeometry relative="1" as="geometry" />
        </mxCell>
        <mxCell id="luZRHkZ189JOT4w14sl7-332" value="" style="ellipse;whiteSpace=wrap;html=1;aspect=fixed;" vertex="1" parent="1">
          <mxGeometry x="810" y="344" width="30" height="30" as="geometry" />
        </mxCell>
        <mxCell id="luZRHkZ189JOT4w14sl7-333" style="edgeStyle=none;rounded=1;jumpSize=20;orthogonalLoop=1;jettySize=auto;html=1;entryX=0;entryY=0.5;entryDx=0;entryDy=0;strokeWidth=1;" edge="1" parent="1" source="luZRHkZ189JOT4w14sl7-334" target="luZRHkZ189JOT4w14sl7-355">
          <mxGeometry relative="1" as="geometry" />
        </mxCell>
        <mxCell id="luZRHkZ189JOT4w14sl7-334" value="" style="ellipse;whiteSpace=wrap;html=1;aspect=fixed;" vertex="1" parent="1">
          <mxGeometry x="890" y="184" width="30" height="30" as="geometry" />
        </mxCell>
        <mxCell id="luZRHkZ189JOT4w14sl7-335" value="" style="ellipse;whiteSpace=wrap;html=1;aspect=fixed;" vertex="1" parent="1">
          <mxGeometry x="890" y="224" width="30" height="30" as="geometry" />
        </mxCell>
        <mxCell id="luZRHkZ189JOT4w14sl7-336" style="edgeStyle=none;rounded=1;jumpSize=20;orthogonalLoop=1;jettySize=auto;html=1;entryX=0;entryY=0.5;entryDx=0;entryDy=0;strokeWidth=1;" edge="1" parent="1" source="luZRHkZ189JOT4w14sl7-338" target="luZRHkZ189JOT4w14sl7-352">
          <mxGeometry relative="1" as="geometry" />
        </mxCell>
        <mxCell id="luZRHkZ189JOT4w14sl7-337" style="edgeStyle=none;rounded=1;jumpSize=20;orthogonalLoop=1;jettySize=auto;html=1;entryX=0;entryY=0.5;entryDx=0;entryDy=0;strokeWidth=1;" edge="1" parent="1" source="luZRHkZ189JOT4w14sl7-338" target="luZRHkZ189JOT4w14sl7-347">
          <mxGeometry relative="1" as="geometry" />
        </mxCell>
        <mxCell id="luZRHkZ189JOT4w14sl7-338" value="" style="ellipse;whiteSpace=wrap;html=1;aspect=fixed;" vertex="1" parent="1">
          <mxGeometry x="890" y="264" width="30" height="30" as="geometry" />
        </mxCell>
        <mxCell id="luZRHkZ189JOT4w14sl7-339" style="edgeStyle=none;rounded=1;jumpSize=20;orthogonalLoop=1;jettySize=auto;html=1;entryX=0;entryY=0.5;entryDx=0;entryDy=0;strokeWidth=1;" edge="1" parent="1" source="luZRHkZ189JOT4w14sl7-341" target="luZRHkZ189JOT4w14sl7-347">
          <mxGeometry relative="1" as="geometry" />
        </mxCell>
        <mxCell id="luZRHkZ189JOT4w14sl7-340" style="edgeStyle=none;rounded=1;jumpSize=20;orthogonalLoop=1;jettySize=auto;html=1;entryX=0;entryY=0.5;entryDx=0;entryDy=0;strokeWidth=1;" edge="1" parent="1" source="luZRHkZ189JOT4w14sl7-341" target="luZRHkZ189JOT4w14sl7-355">
          <mxGeometry relative="1" as="geometry" />
        </mxCell>
        <mxCell id="luZRHkZ189JOT4w14sl7-341" value="" style="ellipse;whiteSpace=wrap;html=1;aspect=fixed;" vertex="1" parent="1">
          <mxGeometry x="890" y="304" width="30" height="30" as="geometry" />
        </mxCell>
        <mxCell id="luZRHkZ189JOT4w14sl7-342" style="edgeStyle=none;rounded=1;jumpSize=20;orthogonalLoop=1;jettySize=auto;html=1;entryX=0;entryY=0.5;entryDx=0;entryDy=0;strokeWidth=1;" edge="1" parent="1" source="luZRHkZ189JOT4w14sl7-343" target="luZRHkZ189JOT4w14sl7-349">
          <mxGeometry relative="1" as="geometry" />
        </mxCell>
        <mxCell id="luZRHkZ189JOT4w14sl7-343" value="" style="ellipse;whiteSpace=wrap;html=1;aspect=fixed;" vertex="1" parent="1">
          <mxGeometry x="890" y="344" width="30" height="30" as="geometry" />
        </mxCell>
        <mxCell id="luZRHkZ189JOT4w14sl7-344" value="Dense layers" style="text;html=1;strokeColor=none;fillColor=none;align=center;verticalAlign=middle;whiteSpace=wrap;rounded=0;" vertex="1" parent="1">
          <mxGeometry x="860" y="383" width="250" height="20" as="geometry" />
        </mxCell>
        <mxCell id="luZRHkZ189JOT4w14sl7-345" value="Flatten" style="text;html=1;strokeColor=none;fillColor=none;align=center;verticalAlign=middle;whiteSpace=wrap;rounded=0;" vertex="1" parent="1">
          <mxGeometry x="700" y="383" width="250" height="20" as="geometry" />
        </mxCell>
        <mxCell id="luZRHkZ189JOT4w14sl7-346" style="edgeStyle=none;rounded=1;jumpSize=20;orthogonalLoop=1;jettySize=auto;html=1;entryX=0;entryY=0.5;entryDx=0;entryDy=0;strokeWidth=1;" edge="1" parent="1" source="luZRHkZ189JOT4w14sl7-347" target="luZRHkZ189JOT4w14sl7-370">
          <mxGeometry relative="1" as="geometry" />
        </mxCell>
        <mxCell id="luZRHkZ189JOT4w14sl7-347" value="" style="ellipse;whiteSpace=wrap;html=1;aspect=fixed;" vertex="1" parent="1">
          <mxGeometry x="970" y="184" width="30" height="30" as="geometry" />
        </mxCell>
        <mxCell id="luZRHkZ189JOT4w14sl7-348" style="edgeStyle=none;rounded=1;jumpSize=20;orthogonalLoop=1;jettySize=auto;html=1;entryX=0;entryY=0.5;entryDx=0;entryDy=0;strokeWidth=1;" edge="1" parent="1" source="luZRHkZ189JOT4w14sl7-349" target="luZRHkZ189JOT4w14sl7-367">
          <mxGeometry relative="1" as="geometry" />
        </mxCell>
        <mxCell id="luZRHkZ189JOT4w14sl7-349" value="" style="ellipse;whiteSpace=wrap;html=1;aspect=fixed;" vertex="1" parent="1">
          <mxGeometry x="970" y="224" width="30" height="30" as="geometry" />
        </mxCell>
        <mxCell id="luZRHkZ189JOT4w14sl7-350" style="edgeStyle=none;rounded=1;jumpSize=20;orthogonalLoop=1;jettySize=auto;html=1;entryX=0;entryY=0.5;entryDx=0;entryDy=0;strokeWidth=1;" edge="1" parent="1" source="luZRHkZ189JOT4w14sl7-351" target="luZRHkZ189JOT4w14sl7-358">
          <mxGeometry relative="1" as="geometry" />
        </mxCell>
        <mxCell id="luZRHkZ189JOT4w14sl7-351" value="" style="ellipse;whiteSpace=wrap;html=1;aspect=fixed;" vertex="1" parent="1">
          <mxGeometry x="970" y="264" width="30" height="30" as="geometry" />
        </mxCell>
        <mxCell id="luZRHkZ189JOT4w14sl7-352" value="" style="ellipse;whiteSpace=wrap;html=1;aspect=fixed;" vertex="1" parent="1">
          <mxGeometry x="970" y="304" width="30" height="30" as="geometry" />
        </mxCell>
        <mxCell id="luZRHkZ189JOT4w14sl7-353" style="edgeStyle=none;rounded=1;jumpSize=20;orthogonalLoop=1;jettySize=auto;html=1;entryX=0;entryY=0.5;entryDx=0;entryDy=0;strokeWidth=1;" edge="1" parent="1" source="luZRHkZ189JOT4w14sl7-355" target="luZRHkZ189JOT4w14sl7-361">
          <mxGeometry relative="1" as="geometry" />
        </mxCell>
        <mxCell id="luZRHkZ189JOT4w14sl7-354" style="edgeStyle=none;rounded=1;jumpSize=20;orthogonalLoop=1;jettySize=auto;html=1;entryX=0;entryY=0.5;entryDx=0;entryDy=0;strokeWidth=1;" edge="1" parent="1" source="luZRHkZ189JOT4w14sl7-355" target="luZRHkZ189JOT4w14sl7-370">
          <mxGeometry relative="1" as="geometry" />
        </mxCell>
        <mxCell id="luZRHkZ189JOT4w14sl7-355" value="" style="ellipse;whiteSpace=wrap;html=1;aspect=fixed;" vertex="1" parent="1">
          <mxGeometry x="970" y="344" width="30" height="30" as="geometry" />
        </mxCell>
        <mxCell id="luZRHkZ189JOT4w14sl7-356" style="edgeStyle=none;rounded=1;jumpSize=20;orthogonalLoop=1;jettySize=auto;html=1;entryX=0;entryY=0.5;entryDx=0;entryDy=0;strokeWidth=1;" edge="1" parent="1" source="luZRHkZ189JOT4w14sl7-358" target="luZRHkZ189JOT4w14sl7-373">
          <mxGeometry relative="1" as="geometry" />
        </mxCell>
        <mxCell id="luZRHkZ189JOT4w14sl7-357" style="edgeStyle=none;rounded=1;jumpSize=20;orthogonalLoop=1;jettySize=auto;html=1;strokeWidth=1;entryX=-0.001;entryY=0.557;entryDx=0;entryDy=0;entryPerimeter=0;" edge="1" parent="1" source="luZRHkZ189JOT4w14sl7-358" target="luZRHkZ189JOT4w14sl7-372">
          <mxGeometry relative="1" as="geometry">
            <mxPoint x="1150" y="279.0000000000001" as="targetPoint" />
          </mxGeometry>
        </mxCell>
        <mxCell id="luZRHkZ189JOT4w14sl7-358" value="" style="ellipse;whiteSpace=wrap;html=1;aspect=fixed;" vertex="1" parent="1">
          <mxGeometry x="1050" y="184" width="30" height="30" as="geometry" />
        </mxCell>
        <mxCell id="luZRHkZ189JOT4w14sl7-359" style="edgeStyle=none;rounded=1;jumpSize=20;orthogonalLoop=1;jettySize=auto;html=1;entryX=0;entryY=0.5;entryDx=0;entryDy=0;strokeWidth=1;" edge="1" parent="1" source="luZRHkZ189JOT4w14sl7-361" target="luZRHkZ189JOT4w14sl7-372">
          <mxGeometry relative="1" as="geometry" />
        </mxCell>
        <mxCell id="luZRHkZ189JOT4w14sl7-360" style="edgeStyle=none;rounded=1;jumpSize=20;orthogonalLoop=1;jettySize=auto;html=1;strokeWidth=1;" edge="1" parent="1" source="luZRHkZ189JOT4w14sl7-361">
          <mxGeometry relative="1" as="geometry">
            <mxPoint x="1160" y="319.0000000000001" as="targetPoint" />
          </mxGeometry>
        </mxCell>
        <mxCell id="luZRHkZ189JOT4w14sl7-361" value="" style="ellipse;whiteSpace=wrap;html=1;aspect=fixed;" vertex="1" parent="1">
          <mxGeometry x="1050" y="224" width="30" height="30" as="geometry" />
        </mxCell>
        <mxCell id="luZRHkZ189JOT4w14sl7-362" style="edgeStyle=none;rounded=1;jumpSize=20;orthogonalLoop=1;jettySize=auto;html=1;entryX=0;entryY=0.5;entryDx=0;entryDy=0;strokeWidth=1;" edge="1" parent="1" source="luZRHkZ189JOT4w14sl7-364" target="luZRHkZ189JOT4w14sl7-373">
          <mxGeometry relative="1" as="geometry" />
        </mxCell>
        <mxCell id="luZRHkZ189JOT4w14sl7-363" style="edgeStyle=none;rounded=1;jumpSize=20;orthogonalLoop=1;jettySize=auto;html=1;strokeWidth=1;" edge="1" parent="1" source="luZRHkZ189JOT4w14sl7-364">
          <mxGeometry relative="1" as="geometry">
            <mxPoint x="1160" y="279.0000000000001" as="targetPoint" />
          </mxGeometry>
        </mxCell>
        <mxCell id="luZRHkZ189JOT4w14sl7-364" value="" style="ellipse;whiteSpace=wrap;html=1;aspect=fixed;" vertex="1" parent="1">
          <mxGeometry x="1050" y="264" width="30" height="30" as="geometry" />
        </mxCell>
        <mxCell id="luZRHkZ189JOT4w14sl7-365" style="edgeStyle=none;rounded=1;jumpSize=20;orthogonalLoop=1;jettySize=auto;html=1;entryX=0;entryY=0.5;entryDx=0;entryDy=0;strokeWidth=1;" edge="1" parent="1" source="luZRHkZ189JOT4w14sl7-367" target="luZRHkZ189JOT4w14sl7-372">
          <mxGeometry relative="1" as="geometry" />
        </mxCell>
        <mxCell id="luZRHkZ189JOT4w14sl7-366" style="edgeStyle=none;rounded=1;jumpSize=20;orthogonalLoop=1;jettySize=auto;html=1;strokeWidth=1;entryX=0;entryY=0.5;entryDx=0;entryDy=0;" edge="1" parent="1" source="luZRHkZ189JOT4w14sl7-367" target="luZRHkZ189JOT4w14sl7-373">
          <mxGeometry relative="1" as="geometry">
            <mxPoint x="1150" y="319.0000000000001" as="targetPoint" />
          </mxGeometry>
        </mxCell>
        <mxCell id="luZRHkZ189JOT4w14sl7-367" value="" style="ellipse;whiteSpace=wrap;html=1;aspect=fixed;" vertex="1" parent="1">
          <mxGeometry x="1050" y="304" width="30" height="30" as="geometry" />
        </mxCell>
        <mxCell id="luZRHkZ189JOT4w14sl7-368" style="edgeStyle=none;rounded=1;jumpSize=20;orthogonalLoop=1;jettySize=auto;html=1;strokeWidth=1;" edge="1" parent="1" source="luZRHkZ189JOT4w14sl7-370">
          <mxGeometry relative="1" as="geometry">
            <mxPoint x="1160" y="319.0000000000001" as="targetPoint" />
          </mxGeometry>
        </mxCell>
        <mxCell id="luZRHkZ189JOT4w14sl7-369" style="edgeStyle=none;rounded=1;jumpSize=20;orthogonalLoop=1;jettySize=auto;html=1;strokeWidth=1;entryX=0;entryY=0.5;entryDx=0;entryDy=0;" edge="1" parent="1" source="luZRHkZ189JOT4w14sl7-370" target="luZRHkZ189JOT4w14sl7-372">
          <mxGeometry relative="1" as="geometry">
            <mxPoint x="1150" y="279.0000000000001" as="targetPoint" />
          </mxGeometry>
        </mxCell>
        <mxCell id="luZRHkZ189JOT4w14sl7-370" value="" style="ellipse;whiteSpace=wrap;html=1;aspect=fixed;" vertex="1" parent="1">
          <mxGeometry x="1050" y="344" width="30" height="30" as="geometry" />
        </mxCell>
        <mxCell id="luZRHkZ189JOT4w14sl7-371" value="&lt;div&gt;Output&lt;/div&gt;" style="text;html=1;strokeColor=none;fillColor=none;align=center;verticalAlign=middle;whiteSpace=wrap;rounded=0;" vertex="1" parent="1">
          <mxGeometry x="1050" y="383" width="250" height="20" as="geometry" />
        </mxCell>
        <mxCell id="luZRHkZ189JOT4w14sl7-372" value="" style="ellipse;whiteSpace=wrap;html=1;aspect=fixed;fillColor=#dae8fc;strokeColor=#6c8ebf;" vertex="1" parent="1">
          <mxGeometry x="1156" y="264" width="30" height="30" as="geometry" />
        </mxCell>
        <mxCell id="luZRHkZ189JOT4w14sl7-373" value="" style="ellipse;whiteSpace=wrap;html=1;aspect=fixed;fillColor=#d5e8d4;strokeColor=#82b366;" vertex="1" parent="1">
          <mxGeometry x="1156" y="304" width="30" height="30" as="geometry" />
        </mxCell>
      </root>
    </mxGraphModel>
  </diagram>
</mxfile>
